<?xml version="1.0" standalone="no"?>
<!DOCTYPE svg PUBLIC "-//W3C//DTD SVG 20010904//EN"
 "http://www.w3.org/TR/2001/REC-SVG-20010904/DTD/svg10.dtd">
<svg version="1.0" xmlns="http://www.w3.org/2000/svg"
 width="462.000000pt" height="512.000000pt" viewBox="0 0 462.000000 512.000000"
 preserveAspectRatio="xMidYMid meet">

<g transform="translate(0.000000,512.000000) scale(0.100000,-0.100000)"
fill="#000000" stroke="none">
<path d="M2175 5106 c-139 -32 -250 -92 -343 -184 -134 -135 -202 -304 -202
-505 l0 -83 -62 -30 c-104 -49 -262 -148 -360 -227 -304 -242 -524 -584 -618
-957 -51 -202 -53 -220 -57 -853 l-5 -598 -254 -396 c-140 -217 -259 -413
-264 -434 -20 -75 26 -169 100 -203 17 -8 229 -12 709 -16 l684 -5 17 -50
c114 -334 437 -565 790 -565 353 0 676 231 790 565 l17 50 684 5 c480 4 692 8
709 16 74 34 120 128 100 203 -5 21 -124 217 -264 434 l-254 396 -5 598 c-4
633 -6 651 -57 853 -94 373 -314 715 -618 957 -98 79 -256 178 -360 227 l-62
30 0 83 c0 387 -278 684 -655 699 -64 2 -122 -1 -160 -10z m271 -371 c97 -43
172 -144 189 -254 l7 -44 -43 7 c-127 19 -296 26 -412 16 -67 -5 -142 -13
-166 -16 l-43 -7 7 44 c35 221 261 345 461 254z m64 -636 c589 -82 1074 -542
1195 -1134 29 -140 35 -287 35 -843 0 -524 1 -544 20 -582 11 -22 94 -155 185
-296 91 -140 165 -260 165 -265 0 -5 -712 -9 -1800 -9 -1088 0 -1800 4 -1800
9 0 5 74 125 165 265 91 141 174 274 185 296 19 38 20 58 20 582 0 687 9 795
80 1008 219 660 866 1064 1550 969z m209 -3520 c-30 -52 -123 -140 -179 -169
-141 -72 -319 -72 -460 0 -56 29 -149 117 -179 169 l-22 41 431 0 431 0 -22
-41z"/>
</g>
</svg>
