<?xml version="1.0" standalone="no"?>
<!DOCTYPE svg PUBLIC "-//W3C//DTD SVG 20010904//EN"
 "http://www.w3.org/TR/2001/REC-SVG-20010904/DTD/svg10.dtd">
<svg version="1.0" xmlns="http://www.w3.org/2000/svg"
 width="512.000000pt" height="512.000000pt" viewBox="0 0 512.000000 512.000000"
 preserveAspectRatio="xMidYMid meet">

<g transform="translate(0.000000,512.000000) scale(0.100000,-0.100000)"
fill="#000000" stroke="none">
<path d="M1210 5113 c-207 -21 -435 -105 -620 -228 -96 -64 -291 -259 -355
-355 -102 -154 -173 -325 -212 -510 -24 -118 -24 -382 0 -500 59 -284 174
-498 377 -700 202 -203 416 -318 700 -377 115 -24 381 -24 500 0 267 53 488
169 684 358 163 156 269 320 340 527 55 160 70 253 70 442 1 181 -13 267 -64
422 -165 495 -601 854 -1115 917 -85 10 -227 12 -305 4z m210 -313 c62 -32 80
-77 80 -202 l0 -103 55 -29 c109 -57 185 -145 185 -216 0 -76 -74 -150 -150
-150 -36 0 -108 34 -116 55 -10 26 -70 55 -113 55 -49 0 -114 -31 -136 -64
-62 -94 14 -226 128 -226 204 0 392 -155 436 -358 22 -106 9 -197 -44 -302
-35 -69 -125 -158 -193 -189 l-52 -24 0 -104 c0 -126 -18 -171 -80 -203 -51
-26 -93 -25 -142 2 -62 35 -78 77 -78 201 l0 105 -54 26 c-106 52 -186 145
-186 216 0 76 74 150 150 150 40 0 103 -32 123 -63 19 -30 75 -57 116 -57 77
0 151 74 151 150 0 78 -74 150 -154 150 -110 0 -226 51 -311 135 -180 178
-179 457 4 635 31 30 80 66 109 79 l52 24 0 106 c1 124 15 160 76 197 48 29
92 30 144 4z"/>
<path d="M2820 4517 c0 -2 18 -45 40 -96 53 -122 94 -261 115 -393 l18 -108
694 0 c676 0 695 -1 733 -20 26 -13 47 -34 60 -60 19 -38 20 -58 20 -670 0
-612 -1 -632 -20 -670 -13 -26 -34 -47 -60 -60 -39 -20 -57 -20 -1080 -20
l-1041 0 -99 -60 c-187 -113 -380 -184 -589 -216 l-111 -17 0 -1004 c0 -986 0
-1004 20 -1043 13 -26 34 -47 60 -60 39 -20 55 -20 1730 -20 1675 0 1691 0
1730 20 26 13 47 34 60 60 20 39 20 54 20 2180 0 2126 0 2141 -20 2180 -13 26
-34 47 -60 60 -39 20 -57 20 -1130 20 -599 0 -1090 -1 -1090 -3z m-200 -2417
c45 -23 80 -80 80 -130 0 -50 -35 -107 -80 -130 -35 -18 -59 -20 -221 -20
-169 0 -184 1 -221 22 -101 57 -102 194 -2 254 37 23 47 24 222 24 164 0 187
-2 222 -20z m900 0 c45 -23 80 -80 80 -130 0 -50 -35 -107 -80 -130 -35 -18
-59 -20 -221 -20 -169 0 -184 1 -221 22 -101 57 -102 194 -2 254 37 23 47 24
222 24 164 0 187 -2 222 -20z m900 0 c45 -23 80 -80 80 -130 0 -50 -35 -107
-80 -130 -35 -18 -59 -20 -221 -20 -169 0 -184 1 -221 22 -101 57 -102 194 -2
254 37 23 47 24 222 24 164 0 187 -2 222 -20z m-1800 -600 c45 -23 80 -80 80
-130 0 -50 -35 -107 -80 -130 -35 -18 -59 -20 -221 -20 -169 0 -184 1 -221 22
-101 57 -102 194 -2 254 37 23 47 24 222 24 164 0 187 -2 222 -20z m900 0 c45
-23 80 -80 80 -130 0 -50 -35 -107 -80 -130 -35 -18 -59 -20 -221 -20 -169 0
-184 1 -221 22 -101 57 -102 194 -2 254 37 23 47 24 222 24 164 0 187 -2 222
-20z m900 0 c45 -23 80 -80 80 -130 0 -50 -35 -107 -80 -130 -35 -18 -59 -20
-221 -20 -169 0 -184 1 -221 22 -101 57 -102 194 -2 254 37 23 47 24 222 24
164 0 187 -2 222 -20z m-1800 -600 c45 -23 80 -80 80 -130 0 -50 -35 -107 -80
-130 -35 -18 -59 -20 -221 -20 -169 0 -184 1 -221 22 -101 57 -102 194 -2 254
37 23 47 24 222 24 164 0 187 -2 222 -20z m1800 0 c45 -23 80 -80 80 -130 0
-50 -35 -107 -80 -130 -38 -19 -58 -20 -671 -20 l-631 0 -40 22 c-101 57 -102
194 -2 254 l39 24 633 0 c615 0 634 -1 672 -20z"/>
<path d="M2986 3598 c-3 -13 -10 -59 -16 -103 -35 -235 -150 -507 -297 -705
l-52 -70 789 0 790 0 0 450 0 450 -605 0 -605 0 -4 -22z"/>
</g>
</svg>
